<?xml version="1.0" encoding="UTF-8" standalone="no"?>
<!DOCTYPE svg PUBLIC "-//W3C//DTD SVG 1.1//EN"
 "http://www.w3.org/Graphics/SVG/1.1/DTD/svg11.dtd">
<!-- Generated by graphviz version 2.43.0 (0)
 -->
<!-- Title: Diagram1 Pages: 1 -->
<svg width="74pt" height="44pt"
 viewBox="0.00 0.00 74.00 44.00" xmlns="http://www.w3.org/2000/svg" xmlns:xlink="http://www.w3.org/1999/xlink">
<g id="graph0" class="graph" transform="scale(1 1) rotate(0) translate(4 40)">
<title>Diagram1</title>
<polygon fill="white" stroke="transparent" points="-4,4 -4,-40 70,-40 70,4 -4,4"/>
<!-- db -->
<g id="node1" class="node">
<title>db</title>
<path fill="yellow" stroke="black" d="M66,-32.73C66,-34.53 51.21,-36 33,-36 14.79,-36 0,-34.53 0,-32.73 0,-32.73 0,-3.27 0,-3.27 0,-1.47 14.79,0 33,0 51.21,0 66,-1.47 66,-3.27 66,-3.27 66,-32.73 66,-32.73"/>
<path fill="none" stroke="black" d="M66,-32.73C66,-30.92 51.21,-29.45 33,-29.45 14.79,-29.45 0,-30.92 0,-32.73"/>
<text text-anchor="middle" x="33" y="-14.3" font-family="Times,serif" font-size="14.00">Database</text>
</g>
</g>
</svg>
