<?xml version="1.0" encoding="UTF-8" standalone="no"?>
<!DOCTYPE svg PUBLIC "-//W3C//DTD SVG 1.1//EN"
 "http://www.w3.org/Graphics/SVG/1.1/DTD/svg11.dtd">
<!-- Generated by graphviz version 2.43.0 (0)
 -->
<!-- Title: Diagram1 Pages: 1 -->
<svg width="395pt" height="474pt"
 viewBox="0.00 0.00 395.00 473.74" xmlns="http://www.w3.org/2000/svg" xmlns:xlink="http://www.w3.org/1999/xlink">
<g id="graph0" class="graph" transform="scale(1 1) rotate(0) translate(4 469.74)">
<title>Diagram1</title>
<polygon fill="white" stroke="transparent" points="-4,4 -4,-469.74 391,-469.74 391,4 -4,4"/>
<!-- qs -->
<g id="node1" class="node">
<title>qs</title>
<polygon fill="yellow" stroke="black" points="230.5,-321.74 106.5,-321.74 106.5,-283.74 236.5,-283.74 236.5,-315.74 230.5,-321.74"/>
<polyline fill="none" stroke="black" points="230.5,-321.74 230.5,-315.74 "/>
<polyline fill="none" stroke="black" points="236.5,-315.74 230.5,-315.74 "/>
<text text-anchor="middle" x="171.5" y="-306.54" font-family="Times,serif" font-size="14.00">Query Specifications</text>
<text text-anchor="middle" x="171.5" y="-291.54" font-family="Times,serif" font-size="14.00">(query&#45;specs.ts)</text>
</g>
<!-- sjq -->
<g id="node6" class="node">
<title>sjq</title>
<polygon fill="lightblue" stroke="black" points="174.46,-191.45 243.5,-161.74 312.54,-191.45 312.48,-239.53 174.52,-239.53 174.46,-191.45"/>
<text text-anchor="middle" x="243.5" y="-201.04" font-family="Times,serif" font-size="14.00">Query Generator</text>
</g>
<!-- qs&#45;&gt;sjq -->
<g id="edge3" class="edge">
<title>qs&#45;&gt;sjq</title>
<path fill="none" stroke="black" d="M185.04,-283.68C192.66,-273.52 202.51,-260.39 211.95,-247.8"/>
<polygon fill="black" stroke="black" points="214.87,-249.75 218.07,-239.65 209.27,-245.55 214.87,-249.75"/>
</g>
<!-- dbmd -->
<g id="node2" class="node">
<title>dbmd</title>
<polygon fill="none" stroke="black" points="370,-321.74 255,-321.74 255,-283.74 376,-283.74 376,-315.74 370,-321.74"/>
<polyline fill="none" stroke="black" points="370,-321.74 370,-315.74 "/>
<polyline fill="none" stroke="black" points="376,-315.74 370,-315.74 "/>
<text text-anchor="middle" x="315.5" y="-306.54" font-family="Times,serif" font-size="14.00">Database Metadata</text>
<text text-anchor="middle" x="315.5" y="-291.54" font-family="Times,serif" font-size="14.00">(dbmd.json)</text>
</g>
<!-- dbmd&#45;&gt;sjq -->
<g id="edge4" class="edge">
<title>dbmd&#45;&gt;sjq</title>
<path fill="none" stroke="black" d="M301.96,-283.68C294.34,-273.52 284.49,-260.39 275.05,-247.8"/>
<polygon fill="black" stroke="black" points="277.73,-245.55 268.93,-239.65 272.13,-249.75 277.73,-245.55"/>
</g>
<!-- mdf -->
<g id="node3" class="node">
<title>mdf</title>
<polygon fill="lightblue" stroke="black" points="244,-370.18 315.5,-357.74 387,-370.18 386.93,-390.3 244.07,-390.3 244,-370.18"/>
<text text-anchor="middle" x="315.5" y="-372.04" font-family="Times,serif" font-size="14.00">dbmd fetcher</text>
</g>
<!-- mdf&#45;&gt;dbmd -->
<g id="edge2" class="edge">
<title>mdf&#45;&gt;dbmd</title>
<path fill="none" stroke="black" d="M315.5,-357.55C315.5,-349.85 315.5,-340.56 315.5,-331.89"/>
<polygon fill="black" stroke="black" points="319,-331.76 315.5,-321.76 312,-331.76 319,-331.76"/>
</g>
<!-- db -->
<g id="node4" class="node">
<title>db</title>
<path fill="yellow" stroke="black" d="M348.5,-462.47C348.5,-464.27 333.71,-465.74 315.5,-465.74 297.29,-465.74 282.5,-464.27 282.5,-462.47 282.5,-462.47 282.5,-433.01 282.5,-433.01 282.5,-431.21 297.29,-429.74 315.5,-429.74 333.71,-429.74 348.5,-431.21 348.5,-433.01 348.5,-433.01 348.5,-462.47 348.5,-462.47"/>
<path fill="none" stroke="black" d="M348.5,-462.47C348.5,-460.66 333.71,-459.19 315.5,-459.19 297.29,-459.19 282.5,-460.66 282.5,-462.47"/>
<text text-anchor="middle" x="315.5" y="-444.04" font-family="Times,serif" font-size="14.00">Database</text>
</g>
<!-- db&#45;&gt;mdf -->
<g id="edge1" class="edge">
<title>db&#45;&gt;mdf</title>
<path fill="none" stroke="black" d="M315.5,-429.44C315.5,-420.73 315.5,-410.04 315.5,-400.57"/>
<polygon fill="black" stroke="black" points="319,-400.56 315.5,-390.56 312,-400.56 319,-400.56"/>
</g>
<!-- rd -->
<g id="node5" class="node">
<title>rd</title>
<ellipse fill="none" stroke="black" cx="172.5" cy="-98.87" rx="79.81" ry="26.74"/>
<text text-anchor="middle" x="172.5" y="-102.67" font-family="Times,serif" font-size="14.00">Result Types</text>
<text text-anchor="middle" x="172.5" y="-87.67" font-family="Times,serif" font-size="14.00">(Java/TypeScript)</text>
</g>
<!-- sjq&#45;&gt;rd -->
<g id="edge6" class="edge">
<title>sjq&#45;&gt;rd</title>
<path fill="none" stroke="black" d="M221.23,-171.16C213.11,-159.29 203.92,-145.84 195.73,-133.85"/>
<polygon fill="black" stroke="black" points="198.49,-131.7 189.96,-125.42 192.72,-135.65 198.49,-131.7"/>
</g>
<!-- sql -->
<g id="node7" class="node">
<title>sql</title>
<ellipse fill="none" stroke="black" cx="314.5" cy="-98.87" rx="44.39" ry="18"/>
<text text-anchor="middle" x="314.5" y="-95.17" font-family="Times,serif" font-size="14.00">SQL files</text>
</g>
<!-- sjq&#45;&gt;sql -->
<g id="edge5" class="edge">
<title>sjq&#45;&gt;sql</title>
<path fill="none" stroke="black" d="M265.77,-171.16C275.98,-156.23 287.89,-138.8 297.38,-124.91"/>
<polygon fill="black" stroke="black" points="300.47,-126.59 303.23,-116.36 294.69,-122.64 300.47,-126.59"/>
</g>
<!-- Legend -->
<g id="node8" class="node">
<title>Legend</title>
<polygon fill="lightgrey" stroke="transparent" points="345,-36 0,-36 0,0 345,0 345,-36"/>
<polygon fill="yellow" stroke="transparent" points="5.5,-6 5.5,-29 122.5,-29 122.5,-6 5.5,-6"/>
<polygon fill="none" stroke="black" points="5.5,-6 5.5,-29 122.5,-29 122.5,-6 5.5,-6"/>
<text text-anchor="start" x="10.5" y="-14.4" font-family="Times,serif" font-size="12.00">provided by developer</text>
<polygon fill="lightblue" stroke="transparent" points="127.5,-6 127.5,-29 294.5,-29 294.5,-6 127.5,-6"/>
<polygon fill="none" stroke="black" points="127.5,-6 127.5,-29 294.5,-29 294.5,-6 127.5,-6"/>
<text text-anchor="start" x="132.5" y="-14.4" font-family="Times,serif" font-size="12.00">included with SQL/JSON Query</text>
<polygon fill="white" stroke="transparent" points="299.5,-6 299.5,-29 340.5,-29 340.5,-6 299.5,-6"/>
<polygon fill="none" stroke="black" points="299.5,-6 299.5,-29 340.5,-29 340.5,-6 299.5,-6"/>
<text text-anchor="start" x="304.5" y="-14.4" font-family="Times,serif" font-size="12.00">output</text>
</g>
</g>
</svg>
