<?xml version="1.0" encoding="UTF-8" standalone="no"?>
<!DOCTYPE svg PUBLIC "-//W3C//DTD SVG 1.1//EN"
 "http://www.w3.org/Graphics/SVG/1.1/DTD/svg11.dtd">
<!-- Generated by graphviz version 2.43.0 (0)
 -->
<!-- Title: Diagram1 Pages: 1 -->
<svg width="388pt" height="474pt"
 viewBox="0.00 0.00 388.40 473.74" xmlns="http://www.w3.org/2000/svg" xmlns:xlink="http://www.w3.org/1999/xlink">
<g id="graph0" class="graph" transform="scale(1 1) rotate(0) translate(4 469.74)">
<title>Diagram1</title>
<polygon fill="white" stroke="transparent" points="-4,4 -4,-469.74 384.4,-469.74 384.4,4 -4,4"/>
<!-- qs -->
<g id="node1" class="node">
<title>qs</title>
<polygon fill="yellow" stroke="black" points="137.9,-321.74 13.9,-321.74 13.9,-283.74 143.9,-283.74 143.9,-315.74 137.9,-321.74"/>
<polyline fill="none" stroke="black" points="137.9,-321.74 137.9,-315.74 "/>
<polyline fill="none" stroke="black" points="143.9,-315.74 137.9,-315.74 "/>
<text text-anchor="middle" x="78.9" y="-306.54" font-family="Times,serif" font-size="14.00">Query Specifications</text>
<text text-anchor="middle" x="78.9" y="-291.54" font-family="Times,serif" font-size="14.00">(query&#45;specs.ts)</text>
</g>
<!-- sjq -->
<g id="node6" class="node">
<title>sjq</title>
<polygon fill="lightblue" stroke="black" points="81.86,-191.45 150.9,-161.74 219.95,-191.45 219.88,-239.53 81.92,-239.53 81.86,-191.45"/>
<text text-anchor="middle" x="150.9" y="-201.04" font-family="Times,serif" font-size="14.00">Query Generator</text>
</g>
<!-- qs&#45;&gt;sjq -->
<g id="edge3" class="edge">
<title>qs&#45;&gt;sjq</title>
<path fill="none" stroke="black" d="M92.45,-283.68C100.06,-273.52 109.92,-260.39 119.36,-247.8"/>
<polygon fill="black" stroke="black" points="122.27,-249.75 125.47,-239.65 116.67,-245.55 122.27,-249.75"/>
</g>
<!-- dbmd -->
<g id="node2" class="node">
<title>dbmd</title>
<polygon fill="none" stroke="black" points="277.4,-321.74 162.4,-321.74 162.4,-283.74 283.4,-283.74 283.4,-315.74 277.4,-321.74"/>
<polyline fill="none" stroke="black" points="277.4,-321.74 277.4,-315.74 "/>
<polyline fill="none" stroke="black" points="283.4,-315.74 277.4,-315.74 "/>
<text text-anchor="middle" x="222.9" y="-306.54" font-family="Times,serif" font-size="14.00">Database Metadata</text>
<text text-anchor="middle" x="222.9" y="-291.54" font-family="Times,serif" font-size="14.00">(dbmd.json)</text>
</g>
<!-- dbmd&#45;&gt;sjq -->
<g id="edge4" class="edge">
<title>dbmd&#45;&gt;sjq</title>
<path fill="none" stroke="black" d="M209.36,-283.68C201.74,-273.52 191.89,-260.39 182.45,-247.8"/>
<polygon fill="black" stroke="black" points="185.14,-245.55 176.34,-239.65 179.54,-249.75 185.14,-245.55"/>
</g>
<!-- mdf -->
<g id="node3" class="node">
<title>mdf</title>
<polygon fill="lightblue" stroke="black" points="151.4,-370.18 222.9,-357.74 294.4,-370.18 294.34,-390.3 151.47,-390.3 151.4,-370.18"/>
<text text-anchor="middle" x="222.9" y="-372.04" font-family="Times,serif" font-size="14.00">dbmd fetcher</text>
</g>
<!-- mdf&#45;&gt;dbmd -->
<g id="edge2" class="edge">
<title>mdf&#45;&gt;dbmd</title>
<path fill="none" stroke="black" d="M222.9,-357.55C222.9,-349.85 222.9,-340.56 222.9,-331.89"/>
<polygon fill="black" stroke="black" points="226.4,-331.76 222.9,-321.76 219.4,-331.76 226.4,-331.76"/>
</g>
<!-- db -->
<g id="node4" class="node">
<title>db</title>
<path fill="yellow" stroke="black" d="M255.9,-462.47C255.9,-464.27 241.11,-465.74 222.9,-465.74 204.69,-465.74 189.9,-464.27 189.9,-462.47 189.9,-462.47 189.9,-433.01 189.9,-433.01 189.9,-431.21 204.69,-429.74 222.9,-429.74 241.11,-429.74 255.9,-431.21 255.9,-433.01 255.9,-433.01 255.9,-462.47 255.9,-462.47"/>
<path fill="none" stroke="black" d="M255.9,-462.47C255.9,-460.66 241.11,-459.19 222.9,-459.19 204.69,-459.19 189.9,-460.66 189.9,-462.47"/>
<text text-anchor="middle" x="222.9" y="-444.04" font-family="Times,serif" font-size="14.00">Database</text>
</g>
<!-- db&#45;&gt;mdf -->
<g id="edge1" class="edge">
<title>db&#45;&gt;mdf</title>
<path fill="none" stroke="black" d="M222.9,-429.44C222.9,-420.73 222.9,-410.04 222.9,-400.57"/>
<polygon fill="black" stroke="black" points="226.4,-400.56 222.9,-390.56 219.4,-400.56 226.4,-400.56"/>
</g>
<!-- rd -->
<g id="node5" class="node">
<title>rd</title>
<ellipse fill="none" stroke="black" cx="79.9" cy="-98.87" rx="79.81" ry="26.74"/>
<text text-anchor="middle" x="79.9" y="-102.67" font-family="Times,serif" font-size="14.00">Result Types</text>
<text text-anchor="middle" x="79.9" y="-87.67" font-family="Times,serif" font-size="14.00">(Java/TypeScript)</text>
</g>
<!-- sjq&#45;&gt;rd -->
<g id="edge6" class="edge">
<title>sjq&#45;&gt;rd</title>
<path fill="none" stroke="black" d="M128.63,-171.16C120.52,-159.29 111.32,-145.84 103.13,-133.85"/>
<polygon fill="black" stroke="black" points="105.9,-131.7 97.37,-125.42 100.12,-135.65 105.9,-131.7"/>
</g>
<!-- sql -->
<g id="node7" class="node">
<title>sql</title>
<ellipse fill="none" stroke="black" cx="221.9" cy="-98.87" rx="44.39" ry="18"/>
<text text-anchor="middle" x="221.9" y="-95.17" font-family="Times,serif" font-size="14.00">SQL files</text>
</g>
<!-- sjq&#45;&gt;sql -->
<g id="edge5" class="edge">
<title>sjq&#45;&gt;sql</title>
<path fill="none" stroke="black" d="M173.17,-171.16C183.38,-156.23 195.29,-138.8 204.78,-124.91"/>
<polygon fill="black" stroke="black" points="207.88,-126.59 210.63,-116.36 202.1,-122.64 207.88,-126.59"/>
</g>
<!-- space -->
<g id="node8" class="node">
<title>space</title>
<polygon fill="none" stroke="transparent" points="106.9,-36 52.9,-36 52.9,0 106.9,0 106.9,-36"/>
<text text-anchor="middle" x="79.9" y="-14.3" font-family="Times,serif" font-size="14.00">source</text>
</g>
<!-- Legend -->
<g id="node9" class="node">
<title>Legend</title>
<polygon fill="lightgrey" stroke="transparent" points="380.4,-36 125.4,-36 125.4,0 380.4,0 380.4,-36"/>
<polygon fill="yellow" stroke="transparent" points="130.9,-7 130.9,-28 233.9,-28 233.9,-7 130.9,-7"/>
<polygon fill="none" stroke="white" points="130.9,-7 130.9,-28 233.9,-28 233.9,-7 130.9,-7"/>
<text text-anchor="start" x="135.9" y="-15" font-family="Times,serif" font-size="10.00" fill="blue">provided by developer</text>
<polygon fill="lightblue" stroke="transparent" points="238.9,-7 238.9,-28 332.9,-28 332.9,-7 238.9,-7"/>
<polygon fill="none" stroke="white" points="238.9,-7 238.9,-28 332.9,-28 332.9,-7 238.9,-7"/>
<text text-anchor="start" x="243.9" y="-15" font-family="Times,serif" font-size="10.00" fill="blue">provided by the tool</text>
<polygon fill="white" stroke="transparent" points="337.9,-7 337.9,-28 375.9,-28 375.9,-7 337.9,-7"/>
<polygon fill="none" stroke="black" points="337.9,-7 337.9,-28 375.9,-28 375.9,-7 337.9,-7"/>
<text text-anchor="start" x="342.9" y="-15" font-family="Times,serif" font-size="10.00" fill="blue">output</text>
</g>
</g>
</svg>
