<?xml version="1.0" encoding="UTF-8" standalone="no"?>
<!DOCTYPE svg PUBLIC "-//W3C//DTD SVG 1.1//EN"
 "http://www.w3.org/Graphics/SVG/1.1/DTD/svg11.dtd">
<!-- Generated by graphviz version 2.43.0 (0)
 -->
<!-- Title: Diagram1 Pages: 1 -->
<svg width="302pt" height="402pt"
 viewBox="0.00 0.00 302.40 401.74" xmlns="http://www.w3.org/2000/svg" xmlns:xlink="http://www.w3.org/1999/xlink">
<g id="graph0" class="graph" transform="scale(1 1) rotate(0) translate(4 397.74)">
<title>Diagram1</title>
<polygon fill="white" stroke="transparent" points="-4,4 -4,-397.74 298.4,-397.74 298.4,4 -4,4"/>
<!-- qs -->
<g id="node1" class="node">
<title>qs</title>
<polygon fill="yellow" stroke="black" points="137.9,-249.74 13.9,-249.74 13.9,-211.74 143.9,-211.74 143.9,-243.74 137.9,-249.74"/>
<polyline fill="none" stroke="black" points="137.9,-249.74 137.9,-243.74 "/>
<polyline fill="none" stroke="black" points="143.9,-243.74 137.9,-243.74 "/>
<text text-anchor="middle" x="78.9" y="-234.54" font-family="Times,serif" font-size="14.00">Query Specifications</text>
<text text-anchor="middle" x="78.9" y="-219.54" font-family="Times,serif" font-size="14.00">(query&#45;specs.ts)</text>
</g>
<!-- sjq -->
<g id="node6" class="node">
<title>sjq</title>
<polygon fill="lightblue" stroke="black" points="81.86,-119.45 150.9,-89.74 219.95,-119.45 219.88,-167.53 81.92,-167.53 81.86,-119.45"/>
<text text-anchor="middle" x="150.9" y="-129.04" font-family="Times,serif" font-size="14.00">Query Generator</text>
</g>
<!-- qs&#45;&gt;sjq -->
<g id="edge3" class="edge">
<title>qs&#45;&gt;sjq</title>
<path fill="none" stroke="black" d="M92.45,-211.68C100.06,-201.52 109.92,-188.39 119.36,-175.8"/>
<polygon fill="black" stroke="black" points="122.27,-177.75 125.47,-167.65 116.67,-173.55 122.27,-177.75"/>
</g>
<!-- dbmd -->
<g id="node2" class="node">
<title>dbmd</title>
<polygon fill="none" stroke="black" points="277.4,-249.74 162.4,-249.74 162.4,-211.74 283.4,-211.74 283.4,-243.74 277.4,-249.74"/>
<polyline fill="none" stroke="black" points="277.4,-249.74 277.4,-243.74 "/>
<polyline fill="none" stroke="black" points="283.4,-243.74 277.4,-243.74 "/>
<text text-anchor="middle" x="222.9" y="-234.54" font-family="Times,serif" font-size="14.00">Database Metadata</text>
<text text-anchor="middle" x="222.9" y="-219.54" font-family="Times,serif" font-size="14.00">(dbmd.json)</text>
</g>
<!-- dbmd&#45;&gt;sjq -->
<g id="edge4" class="edge">
<title>dbmd&#45;&gt;sjq</title>
<path fill="none" stroke="black" d="M209.36,-211.68C201.74,-201.52 191.89,-188.39 182.45,-175.8"/>
<polygon fill="black" stroke="black" points="185.14,-173.55 176.34,-167.65 179.54,-177.75 185.14,-173.55"/>
</g>
<!-- mdf -->
<g id="node3" class="node">
<title>mdf</title>
<polygon fill="lightblue" stroke="black" points="151.4,-298.18 222.9,-285.74 294.4,-298.18 294.34,-318.3 151.47,-318.3 151.4,-298.18"/>
<text text-anchor="middle" x="222.9" y="-300.04" font-family="Times,serif" font-size="14.00">dbmd fetcher</text>
</g>
<!-- mdf&#45;&gt;dbmd -->
<g id="edge2" class="edge">
<title>mdf&#45;&gt;dbmd</title>
<path fill="none" stroke="black" d="M222.9,-285.55C222.9,-277.85 222.9,-268.56 222.9,-259.89"/>
<polygon fill="black" stroke="black" points="226.4,-259.76 222.9,-249.76 219.4,-259.76 226.4,-259.76"/>
</g>
<!-- db -->
<g id="node4" class="node">
<title>db</title>
<path fill="yellow" stroke="black" d="M255.9,-390.47C255.9,-392.27 241.11,-393.74 222.9,-393.74 204.69,-393.74 189.9,-392.27 189.9,-390.47 189.9,-390.47 189.9,-361.01 189.9,-361.01 189.9,-359.21 204.69,-357.74 222.9,-357.74 241.11,-357.74 255.9,-359.21 255.9,-361.01 255.9,-361.01 255.9,-390.47 255.9,-390.47"/>
<path fill="none" stroke="black" d="M255.9,-390.47C255.9,-388.66 241.11,-387.19 222.9,-387.19 204.69,-387.19 189.9,-388.66 189.9,-390.47"/>
<text text-anchor="middle" x="222.9" y="-372.04" font-family="Times,serif" font-size="14.00">Database</text>
</g>
<!-- db&#45;&gt;mdf -->
<g id="edge1" class="edge">
<title>db&#45;&gt;mdf</title>
<path fill="none" stroke="black" d="M222.9,-357.44C222.9,-348.73 222.9,-338.04 222.9,-328.57"/>
<polygon fill="black" stroke="black" points="226.4,-328.56 222.9,-318.56 219.4,-328.56 226.4,-328.56"/>
</g>
<!-- rd -->
<g id="node5" class="node">
<title>rd</title>
<ellipse fill="none" stroke="black" cx="79.9" cy="-26.87" rx="79.81" ry="26.74"/>
<text text-anchor="middle" x="79.9" y="-30.67" font-family="Times,serif" font-size="14.00">Result Types</text>
<text text-anchor="middle" x="79.9" y="-15.67" font-family="Times,serif" font-size="14.00">(Java/TypeScript)</text>
</g>
<!-- sjq&#45;&gt;rd -->
<g id="edge6" class="edge">
<title>sjq&#45;&gt;rd</title>
<path fill="none" stroke="black" d="M128.63,-99.16C120.52,-87.29 111.32,-73.84 103.13,-61.85"/>
<polygon fill="black" stroke="black" points="105.9,-59.7 97.37,-53.42 100.12,-63.65 105.9,-59.7"/>
</g>
<!-- sql -->
<g id="node7" class="node">
<title>sql</title>
<ellipse fill="none" stroke="black" cx="221.9" cy="-26.87" rx="44.39" ry="18"/>
<text text-anchor="middle" x="221.9" y="-23.17" font-family="Times,serif" font-size="14.00">SQL files</text>
</g>
<!-- sjq&#45;&gt;sql -->
<g id="edge5" class="edge">
<title>sjq&#45;&gt;sql</title>
<path fill="none" stroke="black" d="M173.17,-99.16C183.38,-84.23 195.29,-66.8 204.78,-52.91"/>
<polygon fill="black" stroke="black" points="207.88,-54.59 210.63,-44.36 202.1,-50.64 207.88,-54.59"/>
</g>
</g>
</svg>
