<?xml version="1.0" encoding="UTF-8" standalone="no"?>
<!-- Generated by graphviz version 2.40.1 (20161225.0304)
 -->

<!-- Title: Diagram1 Pages: 1 -->

<svg
   width="314pt"
   height="410pt"
   viewBox="0.00 0.00 314.18 410.43"
   version="1.1"
   id="svg114"
   sodipodi:docname="sjq-diagram-1.svg"
   inkscape:version="1.2-dev (9ee32be, 2021-06-19)"
   xmlns:inkscape="http://www.inkscape.org/namespaces/inkscape"
   xmlns:sodipodi="http://sodipodi.sourceforge.net/DTD/sodipodi-0.dtd"
   xmlns="http://www.w3.org/2000/svg"
   xmlns:svg="http://www.w3.org/2000/svg">
  <defs
     id="defs118" />
  <sodipodi:namedview
     id="namedview116"
     pagecolor="#ffffff"
     bordercolor="#666666"
     borderopacity="1.0"
     inkscape:pageshadow="2"
     inkscape:pageopacity="0.0"
     inkscape:pagecheckerboard="0"
     inkscape:document-units="pt"
     showgrid="false"
     inkscape:zoom="1.4176829"
     inkscape:cx="209.14409"
     inkscape:cy="273.33333"
     inkscape:window-width="1299"
     inkscape:window-height="997"
     inkscape:window-x="57"
     inkscape:window-y="25"
     inkscape:window-maximized="0"
     inkscape:current-layer="svg114" />
  <g
     id="graph0"
     class="graph"
     transform="scale(1 1) rotate(0) translate(4 406.4313)">
    <title
       id="title2">Diagram1</title>
    <polygon
       fill="#ffffff"
       stroke="transparent"
       points="-4,4 -4,-406.4313 310.1762,-406.4313 310.1762,4 -4,4"
       id="polygon4" />
    <!-- qs -->
    <g
       id="node1"
       class="node">
      <title
         id="title6">qs</title>
      <polygon
         fill="#ffff00"
         stroke="#000000"
         points="144.0213,-258.2332 16.4402,-258.2332 16.4402,-217.0294 150.0213,-217.0294 150.0213,-252.2332 144.0213,-258.2332"
         id="polygon8" />
      <polyline
         fill="none"
         stroke="#000000"
         points="144.0213,-258.2332 144.0213,-252.2332 "
         id="polyline10" />
      <polyline
         fill="none"
         stroke="#000000"
         points="150.0213,-252.2332 144.0213,-252.2332 "
         id="polyline12" />
      <text
         text-anchor="middle"
         x="83.2307"
         y="-241.8313"
         font-family="Times,serif"
         font-size="14.00"
         fill="#000000"
         id="text14">Query Specifications</text>
      <text
         text-anchor="middle"
         x="83.2307"
         y="-225.0313"
         font-family="Times,serif"
         font-size="14.00"
         fill="#000000"
         id="text16">(query-specs.ts)</text>
    </g>
    <!-- sjq -->
    <g
       id="node6"
       class="node">
      <title
         id="title19">sjq</title>
      <polygon
         fill="#add8e6"
         stroke="#000000"
         points="85.1571,-124.5436 156.2307,-94.8313 227.3044,-124.5436 227.238,-172.619 85.2234,-172.619 85.1571,-124.5436"
         id="polygon21" />
      <text
         text-anchor="middle"
         x="156.2307"
         y="-133.6313"
         font-family="Times,serif"
         font-size="14.00"
         fill="#000000"
         id="text23">Query Generator</text>
    </g>
    <!-- qs&#45;&gt;sjq -->
    <g
       id="edge3"
       class="edge">
      <title
         id="title26">qs-&gt;sjq</title>
      <path
         fill="none"
         stroke="#000000"
         d="M98.3564,-216.9527C106.0301,-206.4617 115.6501,-193.31 124.8309,-180.7587"
         id="path28" />
      <polygon
         fill="#000000"
         stroke="#000000"
         points="127.6968,-182.769 130.7757,-172.6314 122.0469,-178.6363 127.6968,-182.769"
         id="polygon30" />
    </g>
    <!-- dbmd -->
    <g
       id="node2"
       class="node">
      <title
         id="title33">dbmd</title>
      <polygon
         fill="none"
         stroke="#000000"
         points="284.6152,-258.2332 167.8463,-258.2332 167.8463,-217.0294 290.6152,-217.0294 290.6152,-252.2332 284.6152,-258.2332"
         id="polygon35" />
      <polyline
         fill="none"
         stroke="#000000"
         points="284.6152,-258.2332 284.6152,-252.2332 "
         id="polyline37" />
      <polyline
         fill="none"
         stroke="#000000"
         points="290.6152,-252.2332 284.6152,-252.2332 "
         id="polyline39" />
      <text
         text-anchor="middle"
         x="229.2307"
         y="-241.8313"
         font-family="Times,serif"
         font-size="14.00"
         fill="#000000"
         id="text41">Database Metadata</text>
      <text
         text-anchor="middle"
         x="229.2307"
         y="-225.0313"
         font-family="Times,serif"
         font-size="14.00"
         fill="#000000"
         id="text43">(dbmd.json)</text>
    </g>
    <!-- dbmd&#45;&gt;sjq -->
    <g
       id="edge4"
       class="edge">
      <title
         id="title46">dbmd-&gt;sjq</title>
      <path
         fill="none"
         stroke="#000000"
         d="M214.1051,-216.9527C206.4313,-206.4617 196.8114,-193.31 187.6305,-180.7587"
         id="path48" />
      <polygon
         fill="#000000"
         stroke="#000000"
         points="190.4145,-178.6363 181.6857,-172.6314 184.7646,-182.769 190.4145,-178.6363"
         id="polygon50" />
    </g>
    <!-- mdf -->
    <g
       id="node3"
       class="node">
      <title
         id="title53">mdf</title>
      <polygon
         fill="#add8e6"
         stroke="#000000"
         points="152.3398,-306.869 229.2307,-294.4313 306.1217,-306.869 306.0499,-326.9936 152.4115,-326.9936 152.3398,-306.869"
         id="polygon55" />
      <text
         text-anchor="middle"
         x="229.2307"
         y="-308.2313"
         font-family="Times,serif"
         font-size="14.00"
         fill="#000000"
         id="text57">dbmd fetcher</text>
    </g>
    <!-- mdf&#45;&gt;dbmd -->
    <g
       id="edge2"
       class="edge">
      <title
         id="title60">mdf-&gt;dbmd</title>
      <path
         fill="none"
         stroke="#000000"
         d="M229.2307,-294.3243C229.2307,-286.6396 229.2307,-277.4585 229.2307,-268.7458"
         id="path62" />
      <polygon
         fill="#000000"
         stroke="#000000"
         points="232.7308,-268.4828 229.2307,-258.4828 225.7308,-268.4828 232.7308,-268.4828"
         id="polygon64" />
    </g>
    <!-- db -->
    <g
       id="node4"
       class="node">
      <title
         id="title67">db</title>
      <path
         fill="#ffff00"
         stroke="#000000"
         d="M263.0316,-399.1586C263.0316,-400.9644 247.8815,-402.4313 229.2307,-402.4313 210.5799,-402.4313 195.4298,-400.9644 195.4298,-399.1586 195.4298,-399.1586 195.4298,-369.704 195.4298,-369.704 195.4298,-367.8982 210.5799,-366.4313 229.2307,-366.4313 247.8815,-366.4313 263.0316,-367.8982 263.0316,-369.704 263.0316,-369.704 263.0316,-399.1586 263.0316,-399.1586"
         id="path69" />
      <path
         fill="none"
         stroke="#000000"
         d="M263.0316,-399.1586C263.0316,-397.3527 247.8815,-395.8858 229.2307,-395.8858 210.5799,-395.8858 195.4298,-397.3527 195.4298,-399.1586"
         id="path71" />
      <text
         text-anchor="middle"
         x="229.2307"
         y="-380.2313"
         font-family="Times,serif"
         font-size="14.00"
         fill="#000000"
         id="text73">Database</text>
    </g>
    <!-- db&#45;&gt;mdf -->
    <g
       id="edge1"
       class="edge">
      <title
         id="title76">db-&gt;mdf</title>
      <path
         fill="none"
         stroke="#000000"
         d="M229.2307,-366.2626C229.2307,-357.5455 229.2307,-346.9622 229.2307,-337.4942"
         id="path78" />
      <polygon
         fill="#000000"
         stroke="#000000"
         points="232.7308,-337.4372 229.2307,-327.4372 225.7308,-337.4372 232.7308,-337.4372"
         id="polygon80" />
    </g>
    <!-- rd -->
    <g
       id="node5"
       class="node">
      <title
         id="title83">rd</title>
      <ellipse
         fill="none"
         stroke="#000000"
         cx="82.2307"
         cy="-29.4156"
         rx="82.4621"
         ry="29.3315"
         id="ellipse85" />
      <text
         text-anchor="middle"
         x="82.2307"
         y="-33.6156"
         font-family="Times,serif"
         font-size="14.00"
         fill="#000000"
         id="text87">Result Types</text>
      <text
         text-anchor="middle"
         x="82.2307"
         y="-16.8156"
         font-family="Times,serif"
         font-size="14.00"
         fill="#000000"
         id="text89">(Java/TypeScript)</text>
    </g>
    <!-- sjq&#45;&gt;rd -->
    <g
       id="edge6"
       class="edge">
      <title
         id="title92">sjq-&gt;rd</title>
      <path
         fill="none"
         stroke="#000000"
         d="M133.2223,-104.1222C125.1651,-92.3177 116.0697,-78.9923 107.8148,-66.8983"
         id="path94" />
      <polygon
         fill="#000000"
         stroke="#000000"
         points="110.5077,-64.6352 101.9793,-58.3489 104.7261,-68.5815 110.5077,-64.6352"
         id="polygon96" />
    </g>
    <!-- sql -->
    <g
       id="node7"
       class="node">
      <title
         id="title99">sql</title>
      <ellipse
         fill="none"
         stroke="#000000"
         cx="231.2307"
         cy="-29.4156"
         rx="48.1292"
         ry="18"
         id="ellipse101" />
      <text
         text-anchor="middle"
         x="231.2307"
         y="-25.2156"
         font-family="Times,serif"
         font-size="14.00"
         fill="#000000"
         id="text103">SQL files</text>
    </g>
    <!-- sjq&#45;&gt;sql -->
    <g
       id="edge5"
       class="edge">
      <title
         id="title106">sjq-&gt;sql</title>
      <path
         fill="none"
         stroke="#000000"
         d="M179.3452,-104.4184C190.1806,-88.7553 202.9048,-70.362 213.0406,-55.7102"
         id="path108" />
      <polygon
         fill="#000000"
         stroke="#000000"
         points="216.1663,-57.3439 218.9771,-47.1287 210.4095,-53.3615 216.1663,-57.3439"
         id="polygon110" />
    </g>
  </g>
</svg>
